<svg xmlns="http://www.w3.org/2000/svg" viewBox="0 0 64 64" role="img" aria-label="$">
  <rect width="64" height="64" rx="12" fill="#0f1318"/>
  <path
    d="M30 10h4v6.2c5.4.5 9 3.6 9.6 8.5h-4c-.6-3.1-2.8-4.8-5.6-5.2v11.1c6.1 1.2 9.6 4.1 9.6 9.4 0 5.5-4 8.8-9.6 9.3V54h-4v-4.7c-6.2-.6-10.4-4.3-11-10.1h4c.6 3.7 3.3 6 7 6.6V33.1c-6.1-1.1-9.6-3.7-9.6-9 0-5.3 3.7-8.5 9.6-9V10Zm0 9.1c-3.5.4-5.6 2.1-5.6 4.9 0 2.9 1.7 4.3 5.6 5.1V19.1Zm4 14.7v11.9c3.6-.4 5.6-2.3 5.6-5.3 0-3.1-1.7-4.7-5.6-5.6Z"
    fill="#6fdc8c"
  />
</svg>
